<svg width="207" height="238" viewBox="0 0 207 238" fill="none" xmlns="http://www.w3.org/2000/svg">
<path fill-rule="evenodd" clip-rule="evenodd" d="M92.2633 1.19882C94.409 2.64452 96.1473 5.72774 96.1577 8.10684C96.171 11.1822 94.5495 13.6589 91.1636 15.7367C62.3774 33.4007 41.4672 54.4921 28.4759 78.967C6.2628 120.815 12.4675 165.118 45.0854 197.558C55.2974 207.715 65.0932 213.935 77.2841 218.005C103.085 226.616 130.544 220.924 155.096 201.873C161.709 196.741 165.309 193.116 165.118 191.784C164.843 189.879 162.507 189.622 156.671 190.853C147.89 192.704 142.551 193.376 134.103 193.692C121.122 194.179 113.357 192.841 104.609 188.61C100.819 186.778 99.2511 185.647 95.9303 182.348C91.4028 177.851 88.9839 173.932 87.2061 168.214C86.2001 164.979 86.0611 163.558 86.0936 156.873C86.1237 150.692 86.3308 148.505 87.1766 145.435C90.8628 132.049 98.7664 119.885 108.581 112.49C124.699 100.347 146.43 98.6995 165.452 108.179C175.557 113.215 184.312 121.612 188.806 130.578C192.443 137.835 193.641 146.512 191.938 153.246C189.027 164.757 184.114 169.11 177.947 165.644C173.701 163.258 172.77 158.935 175.315 153.422C176.614 150.608 176.794 149.672 176.794 145.752C176.794 141.567 176.675 141.048 174.898 137.452C172.527 132.656 167.499 127.53 161.945 124.245C148.706 116.415 133.731 116.101 120.998 123.385C108.93 130.289 99.081 149.914 101.589 162.063C103.183 169.784 108.13 174.254 117.617 176.546C125.594 178.474 135.386 178.305 147.945 176.025C151.065 175.459 155.059 174.744 156.822 174.437C166.379 172.771 174.955 176.509 178.686 183.965C180.723 188.036 181.248 191.227 180.525 195.144C179.357 201.487 176.127 205.62 165.925 213.83C153.792 223.593 138.982 231.282 125.261 234.941C107.542 239.667 88.6269 238.901 71.1731 232.75C34.8991 219.966 4.89334 180.945 0.50389 140.848C-0.256044 133.904 -0.140648 121.064 0.743561 114.157C2.78518 98.2128 8.84786 80.9674 17.8694 65.4414C31.7321 41.5838 55.6505 18.0285 81.5927 2.68446C86.7742 -0.380017 89.3814 -0.742922 92.2633 1.19882ZM168.904 9.15315C174.673 11.7167 175.265 20.2139 169.889 23.3065C169.076 23.7739 164.86 24.975 160.521 25.9755C119.131 35.5175 88.0869 55.3333 66.8556 85.7636C63.5585 90.4892 61.2264 92.0592 58.1221 91.6426C53.6537 91.0435 50.4316 86.9845 50.9282 82.5803C51.2196 79.9926 53.6626 76.2334 61.1155 66.9019C83.8898 38.3882 116.732 19.1508 158.737 9.71773C165.045 8.30111 166.772 8.20546 168.904 9.15315ZM174.082 54.8126C182.297 55.4226 188.919 56.9615 196.538 60.0314C204.308 63.1619 206.667 65.3472 206.978 69.7016C207.304 74.2749 204.037 77.9809 199.678 77.9809C198.622 77.9809 196.168 77.1747 193.689 76.0125C175.767 67.6149 152.587 69.137 127.919 80.3309C111.353 87.8483 96.2528 99.3898 89.7049 109.538C86.0112 115.262 85.9639 115.314 83.6747 116.188C81.8718 116.877 81.1681 116.917 79.379 116.435C75.1932 115.309 72.4563 110.872 73.3952 106.736C74.2833 102.825 79.7518 95.1947 86.0157 89.1289C102.348 73.3114 126.771 60.7266 149.736 56.2958C154.083 55.4566 167.236 54.1514 168.904 54.3935C169.175 54.4325 171.505 54.6213 174.082 54.8126Z" fill="black"/>
</svg>
